<?xml version="1.0" encoding="utf-8"?>
<svg viewBox="93.3139 -73.7446 145.7273 113.4499" xmlns="http://www.w3.org/2000/svg">
  <path class="cls-3" d="M219.9,43.42c-3.06-10.06-8.17-19.37-15-27.36,13.73-5.62,29.09-4,40.4,5.69" style="fill: rgb(247, 189, 61);" transform="matrix(1, 0, 0, 1, -95.3824462890625, -73.75473022460936)"/>
  <path class="cls-10" d="M239.65,29.21c-3-10-24.1-12.73-36.14-11.68,13.74-5.62,29.1-4,40.41,5.69" style="fill: rgb(255, 255, 255); isolation: isolate; opacity: 0.48;" transform="matrix(1, 0, 0, 1, -95.3824462890625, -73.75473022460936)"/>
  <path class="cls-23" d="M206.61,15.06c.55,.63-1.71,1.48-1.17,2.16,12.6-4.37,26.32-3.06,36.83,5.13l1.95-1.43c-11.22-9.66-23.78-11.49-37.61-5.86Z" style="fill: rgb(211, 144, 33);" transform="matrix(1, 0, 0, 1, -95.3824462890625, -73.75473022460936)"/>
  <path class="cls-27" d="M226.83,37.79l-7.21,5.75c-2.71-10.14-7.47-19.62-14-27.85h0c8.5,5.85,15.71,13.37,21.21,22.1Z" style="fill: rgb(24, 24, 40);" transform="matrix(1, 0, 0, 1, -95.3824462890625, -73.75473022460936)"/>
  <path class="cls-27" d="M221.13,31.06c-.4-.01-.77-.22-1-.55-6.13-10-14.76-12.08-14.89-12.08-.61-.14-1-.73-.89-1.34,.17-.59,.74-.96,1.35-.88,.39,.08,9.72,2.29,16.36,13.15,.34,.53,.18,1.24-.36,1.57,0,0,0,0-.01,0h0c-.17,.08-.37,.13-.56,.12Z" style="fill: rgb(24, 24, 40);" transform="matrix(1, 0, 0, 1, -95.3824462890625, -73.75473022460936)"/>
  <path class="cls-8" d="M224.34,19.75c-1.04-.46-2.15-.72-3.29-.77-.21-.01-.37-.18-.36-.39h0c.02-.2,.19-.36,.39-.36,1.23,.05,2.44,.32,3.57,.81,.19,.09,.28,.31,.2,.51h0c-.08,.19-.3,.29-.5,.21,0,0,0,0-.01,0h0Z" style="fill: rgb(255, 255, 255);" transform="matrix(1, 0, 0, 1, -95.3824462890625, -73.75473022460936)"/>
  <ellipse class="cls-11" cx="215.52" cy="17.89" rx="1.35" ry="1.69" transform="matrix(0.019371953517952258, -0.9998123461014562, 0.9998123461014562, 0.019371953517952258, 98.07756042480469, 159.2652740478516)" style="fill: rgb(255, 255, 255); isolation: isolate; opacity: 0.61;"/>
  <path class="cls-27" d="M219.2,44.94c-.67,0-1.26-.45-1.44-1.09-2.97-9.87-7.95-19.01-14.63-26.85-.54-.65-.44-1.62,.21-2.15,.11-.09,.24-.17,.37-.23,14.88-6.08,30.57-3.86,42,5.94,.64,.54,.71,1.49,.17,2.13,0,0,0,0,0,0h0c-.54,.64-1.5,.71-2.14,.17-10-8.6-23.72-10.85-36.9-6.17,6.27,7.76,10.98,16.66,13.86,26.21,.24,.8-.21,1.64-1,1.88h0c-.15,.09-.32,.14-.5,.16Z" style="fill: rgb(24, 24, 40);" transform="matrix(1, 0, 0, 1, -95.3824462890625, -73.75473022460936)"/>
  <g class="cls-36" style="opacity: 0.2;" transform="matrix(1, 0, 0, 1, -95.3824462890625, -73.75473022460936)">
    <path class="cls-24" d="M295,58.38c-1.84,.02-3.35-1.47-3.37-3.31,0-.02,0-.05,0-.07v-19c.1-1.85,1.69-3.27,3.54-3.17,1.71,.09,3.08,1.46,3.17,3.17v19c.04,1.84-1.41,3.37-3.26,3.42-.03,0-.05,0-.08,0h0v-.04Z" style="fill: rgb(17, 60, 71);"/>
    <path class="cls-24" d="M295,30.71c-1.85,0-3.35-1.5-3.35-3.35h0v-7.11c-.1-1.85,1.32-3.44,3.17-3.54,1.85-.1,3.44,1.32,3.54,3.17,0,.12,0,.24,0,.37v7.07c.02,1.84-1.45,3.36-3.29,3.39h-.07Z" style="fill: rgb(17, 60, 71);"/>
  </g>
  <path class="cls-3" d="M301,32.9c3.01-10.06,8.09-19.38,14.9-27.37-13.73-5.61-29.11-4-40.42,5.7" style="fill: rgb(247, 189, 61);" transform="matrix(1, 0, 0, 1, -95.3824462890625, -73.75473022460936)"/>
  <path class="cls-10" d="M277.37,25.39c3-10,23.12-20.77,38.51-19.86-13.73-5.61-29.11-4-40.42,5.7" style="fill: rgb(255, 255, 255); isolation: isolate; opacity: 0.48;" transform="matrix(1, 0, 0, 1, -95.3824462890625, -73.75473022460936)"/>
  <path class="cls-8" d="M275.94,19.08c3-10,28-18,40.4-13.08-13.73-5.61-29.09-4-40.4,5.7" style="fill: rgb(255, 255, 255);" transform="matrix(1, 0, 0, 1, -95.3824462890625, -73.75473022460936)"/>
  <path class="cls-27" d="M296.13,21.16l6.42,9.16c2.68-10.14,7.31-17.47,13.84-25.66l.13-2.18c-8.47,5.84-14.94,9.97-20.39,18.68Z" style="fill: rgb(24, 24, 40);" transform="matrix(1, 0, 0, 1, -95.3824462890625, -73.75473022460936)"/>
  <path class="cls-3" d="M257.56,10.74h7.64c24.45,0,44.28,19.81,44.29,44.26h0c.02,24.45-19.79,44.28-44.24,44.3,0,0-.01,0-.02,0h-7.67c-24.44,.01-44.27-19.8-44.28-44.24,0-.02,0-.04,0-.06h0c0-24.45,19.82-44.27,44.27-44.27h.01Z" style="fill: rgb(247, 189, 61);" transform="matrix(1, 0, 0, 1, -95.3824462890625, -73.75473022460936)"/>
  <path class="cls-8" d="M257.56,10.74h7.64c24.45,0,44.28,19.81,44.29,44.26h0c-5.28-19.27-19.1-38.87-43.55-38.87h-7.63c-24.45,0-37.22,16.76-45,38.87h0c.01-24.44,19.81-44.24,44.25-44.26Z" style="fill: rgb(255, 255, 255);" transform="matrix(1, 0, 0, 1, -95.3824462890625, -73.75473022460936)"/>
  <path class="cls-21" d="M310.2,54.48c0,24.45-19.82,44.27-44.27,44.27h-7.62c-24.45,.02-44.29-19.78-44.31-44.23,0-.01,0-.03,0-.04,0-.95,0-1.9,.08-2.84,1.5,23.36,20.91,41.52,44.32,41.46h7.65c23.36,0,42.71-18.14,44.19-41.46-.06,.94-.04,1.89-.04,2.84Z" style="fill: rgb(223, 138, 58);" transform="matrix(1, 0, 0, 1, -95.3824462890625, -73.75473022460936)"/>
  <path class="cls-27" d="M304.21,78.78c-9.25-2.18-8.58-1.1-17-10.65,0,0-2.49,12,7,19l10-8.35Z" style="fill: rgb(24, 24, 40);" transform="matrix(1, 0, 0, 1, -95.3824462890625, -73.75473022460936)"/>
  <path class="cls-27" d="M296.27,85.22s-7.25-1-14.13-8.31c0,0-1.56,9.88,5.5,15.09l8.63-6.78Z" style="fill: rgb(24, 24, 40);" transform="matrix(1, 0, 0, 1, -95.3824462890625, -73.75473022460936)"/>
  <path class="cls-27" d="M321.1,65.94c-.4,0-.77-.21-1-.53-2.21-3.34-4.31-3.66-7.82-4.14-1.57-.2-3.13-.49-4.67-.86-2.17-.55-4.38-.92-6.61-1.11-.61-.1-1.06-.63-1.05-1.25,.07-.61,.61-1.05,1.22-1h0c2.39,.19,4.76,.58,7.08,1.16,1.46,.36,2.94,.64,4.43,.82,3.56,.51,6.63,.94,9.39,5.15,.36,.53,.22,1.25-.31,1.61h0c-.19,.12-.41,.19-.64,.2l-.02-.05Z" style="fill: rgb(24, 24, 40);" transform="matrix(1, 0, 0, 1, -95.3824462890625, -73.75473022460936)"/>
  <path class="cls-27" d="M333.27,77.42c-.4,0-.77-.19-1-.52-2.18-3.33-11.17-7.21-24.64-10.74-2.2-.54-4.44-.91-6.7-1.1-.64-.12-1.05-.73-.93-1.37,.1-.55,.58-.95,1.14-.95,2.39,.2,4.75,.59,7.08,1.17,10.06,2.61,22.81,6.72,26,11.66,.36,.52,.23,1.24-.29,1.6h0c-.19,.15-.42,.24-.66,.25Z" style="fill: rgb(24, 24, 40);" transform="matrix(1, 0, 0, 1, -95.3824462890625, -73.75473022460936)"/>
  <path class="cls-27" d="M318.79,79.93h-.2c-3.83-.53-7.36-2.36-10-5.18-1.41-1.44-3.03-2.65-4.8-3.6-2.04-.99-4.16-1.83-6.33-2.49-.6-.19-.94-.84-.75-1.44h0c.2-.6,.84-.93,1.45-.75,2.3,.72,4.54,1.62,6.71,2.68,1.97,1.08,3.77,2.42,5.36,4,2.32,2.13,4.33,4,8.74,4.59,.61,.23,.92,.91,.69,1.52-.14,.38-.47,.66-.86,.74v-.07Z" style="fill: rgb(24, 24, 40);" transform="matrix(1, 0, 0, 1, -95.3824462890625, -73.75473022460936)"/>
  <path class="cls-27" d="M202,65.94c.4-.01,.77-.21,1-.53,2.19-3.34,4.3-3.66,7.8-4.14,1.57-.2,3.13-.49,4.67-.86,2.2-.55,4.44-.93,6.7-1.11,.61-.1,1.05-.63,1.05-1.25-.04-.62-.58-1.09-1.2-1.05,0,0-.01,0-.02,0h0c-2.39,.19-4.76,.58-7.08,1.16-1.46,.36-2.94,.64-4.43,.82-3.56,.51-6.63,.94-9.39,5.15-.36,.53-.22,1.25,.31,1.61h0c.19,.12,.41,.19,.63,.2h-.04Z" style="fill: rgb(24, 24, 40);" transform="matrix(1, 0, 0, 1, -95.3824462890625, -73.75473022460936)"/>
  <path class="cls-27" d="M189.87,77.42c.4,0,.77-.19,1-.52,2.13-3.33,11.13-7.21,24.62-10.74,2.2-.54,4.44-.91,6.7-1.1,.64-.12,1.05-.73,.93-1.37-.1-.55-.58-.95-1.14-.95-2.39,.2-4.75,.59-7.08,1.17-10.06,2.61-22.81,6.72-26,11.66-.36,.52-.23,1.24,.29,1.6h0c.19,.16,.43,.24,.68,.25Z" style="fill: rgb(24, 24, 40);" transform="matrix(1, 0, 0, 1, -95.3824462890625, -73.75473022460936)"/>
  <path class="cls-27" d="M204.35,79.93h.2c3.83-.53,7.36-2.36,10-5.18,1.41-1.43,3.04-2.65,4.81-3.6,2.04-1,4.15-1.83,6.32-2.49,.6-.19,.94-.84,.75-1.44h0c-.2-.6-.84-.93-1.45-.75-2.3,.72-4.54,1.62-6.71,2.68-1.97,1.07-3.77,2.42-5.36,4-2.32,2.13-4.32,4-8.74,4.59-.64,.14-1.04,.77-.9,1.41,.11,.51,.55,.89,1.08,.92v-.14Z" style="fill: rgb(24, 24, 40);" transform="matrix(1, 0, 0, 1, -95.3824462890625, -73.75473022460936)"/>
  <rect class="cls-8" x="228" y="30.2" width="29.71" height="36.16" rx="14.84" ry="14.84" style="fill: rgb(255, 255, 255);" transform="matrix(1, 0, 0, 1, -95.3824462890625, -73.75473022460936)"/>
  <circle class="cls-27" cx="242.52" cy="49.43" r="10.97" style="fill: rgb(24, 24, 40);" transform="matrix(1, 0, 0, 1, -95.3824462890625, -73.75473022460936)"/>
  <circle class="cls-9" cx="245.63" cy="54.11" r="2.77" style="fill: rgb(255, 255, 255); isolation: isolate; opacity: 0.2;" transform="matrix(1, 0, 0, 1, -95.3824462890625, -73.75473022460936)"/>
  <ellipse class="cls-8" cx="240.25" cy="45.22" rx="5.55" ry="4.23" style="fill: rgb(255, 255, 255);" transform="matrix(1, 0, 0, 1, -95.3824462890625, -73.75473022460936)"/>
  <rect class="cls-8" x="266.82" y="30.2" width="29.71" height="36.16" rx="14.84" ry="14.84" style="fill: rgb(255, 255, 255);" transform="matrix(1, 0, 0, 1, -95.3824462890625, -73.75473022460936)"/>
  <circle class="cls-27" cx="281.34" cy="49.43" r="10.97" style="fill: rgb(24, 24, 40);" transform="matrix(1, 0, 0, 1, -95.3824462890625, -73.75473022460936)"/>
  <circle class="cls-9" cx="284.45" cy="54.11" r="2.77" style="fill: rgb(255, 255, 255); isolation: isolate; opacity: 0.2;" transform="matrix(1, 0, 0, 1, -95.3824462890625, -73.75473022460936)"/>
  <ellipse class="cls-8" cx="279.06" cy="45.22" rx="5.55" ry="4.23" style="fill: rgb(255, 255, 255);" transform="matrix(1, 0, 0, 1, -95.3824462890625, -73.75473022460936)"/>
  <path class="cls-8" d="M241.76,22.56c2.26-1.08,4.63-1.89,7.07-2.43,2.43-.54,4.91-.83,7.4-.87,.43,0,.78,.35,.8,.78,0,.41-.33,.75-.74,.78-2.37,.19-4.71,.61-7,1.25-2.28,.61-4.51,1.41-6.66,2.4-.52,.25-1.15,.02-1.4-.5-.25-.52-.02-1.15,.5-1.4h.03Z" style="fill: rgb(255, 255, 255);" transform="matrix(1, 0, 0, 1, -95.3824462890625, -73.75473022460936)"/>
  <ellipse class="cls-8" cx="261.52" cy="19.95" rx="1.35" ry="1.69" transform="matrix(0.019371953517952258, -0.9998123461014562, 0.9998123461014562, 0.019371953517952258, 141.12754821777344, 207.27526855468753)" style="fill: rgb(255, 255, 255);"/>
  <path class="cls-27" d="M265.2,100.82h-7.64c-25.29,.74-46.39-19.16-47.13-44.45s19.16-46.39,44.45-47.13c.39-.01,.78-.02,1.18-.02h9.15c25.29-.74,46.39,19.16,47.13,44.45,.74,25.29-19.16,46.39-44.45,47.13-.39,.01-.78,.02-1.18,.02-.5,.01-1,.01-1.51,0Zm-7.64-88.62c-23.62,.36-42.47,19.8-42.11,43.42,.35,23.11,19,41.76,42.11,42.11h7.64c23.62-.36,42.47-19.8,42.11-43.42-.35-23.11-19-41.76-42.11-42.11h-7.64Z" style="fill: rgb(24, 24, 40);" transform="matrix(1, 0, 0, 1, -95.3824462890625, -73.75473022460936)"/>
  <path class="cls-27" d="M303.68,32.58c-.12,.02-.23,.02-.35,0-.81-.18-1.31-.99-1.13-1.79,0,0,0,0,0,0h0c1.95-9.36,5.74-18.25,11.16-26.13-13.5-3.82-27-.71-36.42,8.52-.6,.6-1.57,.6-2.17,0s-.6-1.57,0-2.17h0c10.79-10.5,26.24-13.73,41.56-8.62,.8,.28,1.23,1.16,.94,1.96,0,.01,0,.02-.01,.04-.05,.14-.11,.27-.2,.39-5.7,7.62-9.37,15.86-11.89,26.71-.19,.66-.8,1.11-1.48,1.1Z" style="fill: rgb(24, 24, 40);" transform="matrix(1, 0, 0, 1, -95.3824462890625, -73.75473022460936)"/>
  <ellipse class="cls-21" cx="269.47" cy="88.67" rx="3.23" ry="1.21" style="fill: rgb(223, 138, 58);" transform="matrix(1, 0, 0, 1, -95.3824462890625, -73.75473022460936)"/>
  <circle class="cls-21" cx="263.35" cy="88.93" r="1.25" style="fill: rgb(223, 138, 58);" transform="matrix(1, 0, 0, 1, -95.3824462890625, -73.75473022460936)"/>
  <ellipse class="cls-8" cx="293.52" cy="13.59" rx="2.27" ry="1.11" transform="matrix(0.8660254037844388, -0.4999999999999999, 0.4999999999999999, 0.8660254037844388, -62.852447509765625, 74.82527160644531)" style="fill: rgb(255, 255, 255);"/>
  <circle class="cls-8" cx="296.13" cy="15.63" r=".51" style="fill: rgb(255, 255, 255);" transform="matrix(1, 0, 0, 1, -95.3824462890625, -73.75473022460936)"/>
  <path class="cls-27" d="M260.51,64.1c-1.2,0-2.18,.97-2.18,2.18,0,.53,.19,1.04,.53,1.43,1,1.08,2.41,2.38,4,2.38s3-1.25,4-2.38c.79-.9,.7-2.28-.2-3.07h0c-.39-.33-.87-.52-1.38-.54h-4.77Z" style="fill: rgb(24, 24, 40);" transform="matrix(1, 0, 0, 1, -95.3824462890625, -73.75473022460936)"/>
  <circle class="cls-3" cx="288.16" cy="100.78" r="11.1" style="fill: rgb(247, 189, 61);" transform="matrix(1, 0, 0, 1, -95.3824462890625, -73.75473022460936)"/>
  <path class="cls-8" d="M299.26,100.78c0,6.13-4.97,11.1-11.1,11.1s-11.1-4.97-11.1-11.1h0c0-6.14,5,1.37,11.1,1.37s11.1-7.51,11.1-1.37Z" style="fill: rgb(255, 255, 255);" transform="matrix(1, 0, 0, 1, -95.3824462890625, -73.75473022460936)"/>
  <path class="cls-27" d="M288.16,113.46c-7.01,0-12.7-5.69-12.7-12.7s5.69-12.7,12.7-12.7,12.7,5.69,12.7,12.7h0c0,7.01-5.69,12.7-12.7,12.7h0Zm0-22.18c-5.25,0-9.5,4.25-9.5,9.5s4.25,9.5,9.5,9.5,9.5-4.25,9.5-9.5h0c0-5.25-4.25-9.5-9.5-9.5Z" style="fill: rgb(24, 24, 40);" transform="matrix(1, 0, 0, 1, -95.3824462890625, -73.75473022460936)"/>
  <circle class="cls-3" cx="234.99" cy="100.78" r="11.1" style="fill: rgb(247, 189, 61);" transform="matrix(1, 0, 0, 1, -95.3824462890625, -73.75473022460936)"/>
  <path class="cls-8" d="M246.09,100.78c0,6.13-4.98,11.1-11.11,11.09-6.13,0-11.09-4.97-11.09-11.09,0-6.14,5,1.37,11.1,1.37s11.1-7.51,11.1-1.37Z" style="fill: rgb(255, 255, 255);" transform="matrix(1, 0, 0, 1, -95.3824462890625, -73.75473022460936)"/>
  <path class="cls-27" d="M235,113.46c-7.01,.01-12.71-5.67-12.72-12.68s5.67-12.71,12.68-12.72,12.71,5.67,12.72,12.68c0,0,0,0,0,0h0c0,7.01-5.67,12.69-12.68,12.71Zm0-22.18c-5.25,0-9.5,4.25-9.5,9.5s4.25,9.5,9.5,9.5,9.5-4.25,9.5-9.5h0c0-5.24-4.26-9.49-9.5-9.5Z" style="fill: rgb(24, 24, 40);" transform="matrix(1, 0, 0, 1, -95.3824462890625, -73.75473022460936)"/>
</svg>