<?xml version="1.0" encoding="UTF-8" standalone="no"?>
<!DOCTYPE svg PUBLIC "-//W3C//DTD SVG 1.1//EN" "http://www.w3.org/Graphics/SVG/1.1/DTD/svg11.dtd">
<svg width="100%" height="100%" viewBox="0 0 120 120" version="1.1" xmlns="http://www.w3.org/2000/svg" xmlns:xlink="http://www.w3.org/1999/xlink" xml:space="preserve" xmlns:serif="http://www.serif.com/" style="fill-rule:evenodd;clip-rule:evenodd;stroke-linejoin:round;stroke-miterlimit:2;">
    <g transform="matrix(1.2,0,0,1.2,-244.872,-8.0821)">
        <path d="M219.9,43.42C216.84,33.36 211.73,24.05 204.9,16.06C218.63,10.44 233.99,12.06 245.3,21.75" style="fill:rgb(247,189,61);fill-rule:nonzero;"/>
    </g>
    <g transform="matrix(1.2,0,0,1.2,-253.872,-8.0821)">
        <path d="M239.65,29.21C236.65,19.21 215.55,16.48 203.51,17.53C217.25,11.91 232.61,13.53 243.92,23.22" style="fill:white;fill-opacity:0.48;fill-rule:nonzero;"/>
    </g>
    <g transform="matrix(1.2,0,0,1.2,-244.872,-8.0821)">
        <path d="M206.61,15.06C207.16,15.69 204.9,16.54 205.44,17.22C218.04,12.85 231.76,14.16 242.27,22.35L244.22,20.92C233,11.26 220.44,9.43 206.61,15.06Z" style="fill:rgb(211,144,33);fill-rule:nonzero;"/>
    </g>
    <g transform="matrix(1.2,0,0,1.2,-244.872,-8.0821)">
        <path d="M221.13,31.06C220.73,31.05 220.36,30.84 220.13,30.51C214,20.51 205.37,18.43 205.24,18.43C204.63,18.29 204.24,17.7 204.35,17.09C204.52,16.5 205.09,16.13 205.7,16.21C206.09,16.29 215.42,18.5 222.06,29.36C222.4,29.89 222.24,30.6 221.7,30.93L221.69,30.93C221.52,31.01 221.32,31.06 221.13,31.05L221.13,31.06Z" style="fill:rgb(24,24,40);fill-rule:nonzero;"/>
    </g>
    <g transform="matrix(1.2,0,0,1.2,-253.872,-8.0821)">
        <path d="M224.34,19.75C223.3,19.29 222.19,19.03 221.05,18.98C220.84,18.97 220.68,18.8 220.69,18.59C220.71,18.39 220.88,18.23 221.08,18.23C222.31,18.28 223.52,18.55 224.65,19.04C224.84,19.13 224.93,19.35 224.85,19.55C224.77,19.74 224.55,19.84 224.35,19.76L224.34,19.76L224.34,19.75Z" style="fill:white;fill-rule:nonzero;"/>
    </g>
    <g transform="matrix(0.0232463,-1.19977,1.19977,0.0232463,-12.72,271.542)">
        <ellipse cx="215.52" cy="17.89" rx="1.35" ry="1.69" style="fill:white;fill-opacity:0.61;"/>
    </g>
    <g transform="matrix(1.2,0,0,1.2,-244.872,-8.0821)">
        <path d="M219.2,44.94C218.53,44.94 217.94,44.49 217.76,43.85C214.79,33.98 209.81,24.84 203.13,17C202.59,16.35 202.69,15.38 203.34,14.85C203.45,14.76 203.58,14.68 203.71,14.62C218.59,8.54 234.28,10.76 245.71,20.56C246.35,21.1 246.42,22.05 245.88,22.69C245.34,23.33 244.38,23.4 243.74,22.86C233.74,14.26 220.02,12.01 206.84,16.69C213.11,24.45 217.82,33.35 220.7,42.9C220.94,43.7 220.49,44.54 219.7,44.78C219.55,44.87 219.38,44.92 219.2,44.94Z" style="fill:rgb(24,24,40);fill-rule:nonzero;"/>
    </g>
    <g transform="matrix(1.2,0,0,1.2,-253.872,-8.0821)">
        <g opacity="0.2">
            <path d="M295,58.38C293.16,58.4 291.65,56.91 291.63,55.07L291.63,36C291.73,34.15 293.32,32.73 295.17,32.83C296.88,32.92 298.25,34.29 298.34,36L298.34,55C298.38,56.84 296.93,58.37 295.08,58.42L295,58.42L295,58.38Z" style="fill:rgb(17,60,71);fill-rule:nonzero;"/>
            <path d="M295,30.71C293.15,30.71 291.65,29.21 291.65,27.36L291.65,20.25C291.55,18.4 292.97,16.81 294.82,16.71C296.67,16.61 298.26,18.03 298.36,19.88L298.36,27.32C298.38,29.16 296.91,30.68 295.07,30.71L295,30.71Z" style="fill:rgb(17,60,71);fill-rule:nonzero;"/>
        </g>
    </g>
    <g transform="matrix(1.2,0,0,1.2,-259.872,-3.0821)">
        <path d="M301,32.9C304.01,22.84 309.09,13.52 315.9,5.53C302.17,-0.08 286.79,1.53 275.48,11.23" style="fill:rgb(247,189,61);fill-rule:nonzero;"/>
    </g>
    <g transform="matrix(1.2,0,0,1.2,-253.872,-8.0821)">
        <path d="M277.37,25.39C280.37,15.39 300.49,4.62 315.88,5.53C302.15,-0.08 286.77,1.53 275.46,11.23" style="fill:white;fill-opacity:0.48;fill-rule:nonzero;"/>
    </g>
    <g transform="matrix(1.2,0,0,1.2,-253.872,-8.0821)">
        <path d="M275.94,19.08C278.94,9.08 303.94,1.08 316.34,6C302.61,0.39 287.25,2 275.94,11.7" style="fill:white;fill-rule:nonzero;"/>
    </g>
    <g transform="matrix(1.2,0,0,1.2,-260.872,-1.0821)">
        <path d="M303.68,32.58C303.56,32.6 303.45,32.6 303.33,32.58C302.52,32.4 302.02,31.59 302.2,30.79C304.15,21.43 307.94,12.54 313.36,4.66C299.86,0.84 286.36,3.95 276.94,13.18C276.34,13.78 275.37,13.78 274.77,13.18C274.17,12.58 274.17,11.61 274.77,11.01C285.56,0.51 301.01,-2.72 316.33,2.39C317.13,2.67 317.56,3.55 317.27,4.35C317.27,4.36 317.27,4.37 317.26,4.39C317.21,4.53 317.15,4.66 317.06,4.78C311.36,12.4 307.69,20.64 305.17,31.49C304.98,32.15 304.37,32.6 303.69,32.59L303.68,32.58Z" style="fill:rgb(24,24,40);fill-rule:nonzero;"/>
    </g>
    <g transform="matrix(1.2,0,0,1.2,-253.872,-8.0821)">
        <path d="M257.56,10.74L265.2,10.74C289.65,10.74 309.48,30.55 309.49,55C309.51,79.45 289.7,99.28 265.25,99.3L257.56,99.3C233.12,99.31 213.29,79.5 213.28,55.06L213.28,55C213.28,30.55 233.1,10.73 257.55,10.73L257.56,10.73L257.56,10.74Z" style="fill:rgb(247,189,61);fill-rule:nonzero;"/>
    </g>
    <g transform="matrix(1.2,0,0,1.2,-253.872,-8.0821)">
        <path d="M257.56,10.74L265.2,10.74C289.65,10.74 309.48,30.55 309.49,55C304.21,35.73 290.39,16.13 265.94,16.13L258.31,16.13C233.86,16.13 221.09,32.89 213.31,55C213.32,30.56 233.12,10.76 257.56,10.74Z" style="fill:white;fill-rule:nonzero;"/>
    </g>
    <g transform="matrix(1.2,0,0,1.2,-253.872,-8.0821)">
        <path d="M310.2,54.48C310.2,78.93 290.38,98.75 265.93,98.75L258.31,98.75C233.86,98.77 214.02,78.97 214,54.52L214,54.48C214,53.53 214,52.58 214.08,51.64C215.58,75 234.99,93.16 258.4,93.1L266.05,93.1C289.41,93.1 308.76,74.96 310.24,51.64C310.18,52.58 310.2,53.53 310.2,54.48Z" style="fill:rgb(223,138,58);fill-rule:nonzero;"/>
    </g>
    <g transform="matrix(1.2,0,0,1.2,-253.872,-8.0821)">
        <path d="M304.21,78.78C294.96,76.6 295.63,77.68 287.21,68.13C287.21,68.13 284.72,80.13 294.21,87.13L304.21,78.78Z" style="fill:rgb(24,24,40);fill-rule:nonzero;"/>
    </g>
    <g transform="matrix(1.2,0,0,1.2,-253.872,-8.0821)">
        <path d="M296.27,85.22C296.27,85.22 289.02,84.22 282.14,76.91C282.14,76.91 280.58,86.79 287.64,92L296.27,85.22Z" style="fill:rgb(24,24,40);fill-rule:nonzero;"/>
    </g>
    <g transform="matrix(1.2,0,0,1.2,-253.872,-8.0821)">
        <path d="M321.1,65.94C320.7,65.94 320.33,65.73 320.1,65.41C317.89,62.07 315.79,61.75 312.28,61.27C310.71,61.07 309.15,60.78 307.61,60.41C305.44,59.86 303.23,59.49 301,59.3C300.39,59.2 299.94,58.67 299.95,58.05C300.02,57.44 300.56,57 301.17,57.05C303.56,57.24 305.93,57.63 308.25,58.21C309.71,58.57 311.19,58.85 312.68,59.03C316.24,59.54 319.31,59.97 322.07,64.18C322.43,64.71 322.29,65.43 321.76,65.79C321.57,65.91 321.35,65.98 321.12,65.99L321.1,65.94Z" style="fill:rgb(24,24,40);fill-rule:nonzero;"/>
    </g>
    <g transform="matrix(1.2,0,0,1.2,-253.872,-8.0821)">
        <path d="M333.27,77.42C332.87,77.42 332.5,77.23 332.27,76.9C330.09,73.57 321.1,69.69 307.63,66.16C305.43,65.62 303.19,65.25 300.93,65.06C300.29,64.94 299.88,64.33 300,63.69C300.1,63.14 300.58,62.74 301.14,62.74C303.53,62.94 305.89,63.33 308.22,63.91C318.28,66.52 331.03,70.63 334.22,75.57C334.58,76.09 334.45,76.81 333.93,77.17C333.74,77.32 333.51,77.41 333.27,77.42Z" style="fill:rgb(24,24,40);fill-rule:nonzero;"/>
    </g>
    <g transform="matrix(1.2,0,0,1.2,-253.872,-8.0821)">
        <path d="M318.8,79.93L318.59,79.93C314.76,79.4 311.23,77.57 308.59,74.75C307.18,73.31 305.56,72.1 303.79,71.15C301.75,70.16 299.63,69.32 297.46,68.66C296.86,68.47 296.52,67.82 296.71,67.22C296.91,66.62 297.55,66.29 298.16,66.47C300.46,67.19 302.7,68.09 304.87,69.15C306.84,70.23 308.64,71.57 310.23,73.15C312.55,75.28 314.56,77.15 318.97,77.74C319.58,77.97 319.89,78.65 319.66,79.26C319.52,79.64 319.19,79.92 318.8,80L318.8,79.93Z" style="fill:rgb(24,24,40);fill-rule:nonzero;"/>
    </g>
    <g transform="matrix(1.2,0,0,1.2,-253.872,-8.0821)">
        <path d="M202,65.94C202.4,65.93 202.77,65.73 203,65.41C205.19,62.07 207.3,61.75 210.8,61.27C212.37,61.07 213.93,60.78 215.47,60.41C217.67,59.86 219.91,59.48 222.17,59.3C222.78,59.2 223.22,58.67 223.22,58.05C223.18,57.43 222.64,56.96 222.02,57L222,57C219.61,57.19 217.24,57.58 214.92,58.16C213.46,58.52 211.98,58.8 210.49,58.98C206.93,59.49 203.86,59.92 201.1,64.13C200.74,64.66 200.88,65.38 201.41,65.74C201.6,65.86 201.82,65.93 202.04,65.94L202,65.94Z" style="fill:rgb(24,24,40);fill-rule:nonzero;"/>
    </g>
    <g transform="matrix(1.2,0,0,1.2,-253.872,-8.0821)">
        <path d="M189.87,77.42C190.27,77.42 190.64,77.23 190.87,76.9C193,73.57 202,69.69 215.49,66.16C217.69,65.62 219.93,65.25 222.19,65.06C222.83,64.94 223.24,64.33 223.12,63.69C223.02,63.14 222.54,62.74 221.98,62.74C219.59,62.94 217.23,63.33 214.9,63.91C204.84,66.52 192.09,70.63 188.9,75.57C188.54,76.09 188.67,76.81 189.19,77.17C189.38,77.33 189.62,77.41 189.87,77.42Z" style="fill:rgb(24,24,40);fill-rule:nonzero;"/>
    </g>
    <g transform="matrix(1.2,0,0,1.2,-253.872,-8.0821)">
        <path d="M204.35,79.93L204.55,79.93C208.38,79.4 211.91,77.57 214.55,74.75C215.96,73.32 217.59,72.1 219.36,71.15C221.4,70.15 223.51,69.32 225.68,68.66C226.28,68.47 226.62,67.82 226.43,67.22C226.23,66.62 225.59,66.29 224.98,66.47C222.68,67.19 220.44,68.09 218.27,69.15C216.3,70.22 214.5,71.57 212.91,73.15C210.59,75.28 208.59,77.15 204.17,77.74C203.53,77.88 203.13,78.51 203.27,79.15C203.38,79.66 203.82,80.04 204.35,80.07L204.35,79.93Z" style="fill:rgb(24,24,40);fill-rule:nonzero;"/>
    </g>
    <g transform="matrix(1.2,0,0,1.2,-253.872,-8.0821)">
        <circle cx="242.52" cy="49.43" r="10.97" style="fill:rgb(24,24,40);"/>
    </g>
    <g transform="matrix(1.2,0,0,1.2,-253.872,-8.0821)">
        <circle cx="245.63" cy="54.11" r="2.77" style="fill:white;fill-opacity:0.2;"/>
    </g>
    <g transform="matrix(1.2,0,0,1.2,-253.872,-8.0821)">
        <ellipse cx="240.25" cy="45.22" rx="5.55" ry="4.23" style="fill:white;"/>
    </g>
    <g transform="matrix(1.2,0,0,1.2,-253.872,-8.0821)">
        <circle cx="281.34" cy="49.43" r="10.97" style="fill:rgb(24,24,40);"/>
    </g>
    <g transform="matrix(1.2,0,0,1.2,-253.872,-8.0821)">
        <circle cx="284.45" cy="54.11" r="2.77" style="fill:white;fill-opacity:0.2;"/>
    </g>
    <g transform="matrix(1.2,0,0,1.2,-253.872,-8.0821)">
        <ellipse cx="279.06" cy="45.22" rx="5.55" ry="4.23" style="fill:white;"/>
    </g>
    <g transform="matrix(1.2,0,0,1.2,-253.872,-8.0821)">
        <path d="M241.76,22.56C244.02,21.48 246.39,20.67 248.83,20.13C251.26,19.59 253.74,19.3 256.23,19.26C256.66,19.26 257.01,19.61 257.03,20.04C257.03,20.45 256.7,20.79 256.29,20.82C253.92,21.01 251.58,21.43 249.29,22.07C247.01,22.68 244.78,23.48 242.63,24.47C242.11,24.72 241.48,24.49 241.23,23.97C240.98,23.45 241.21,22.82 241.73,22.57L241.76,22.57L241.76,22.56Z" style="fill:white;fill-rule:nonzero;"/>
    </g>
    <g transform="matrix(0.0232463,-1.19977,1.19977,0.0232463,29.94,329.154)">
        <ellipse cx="261.52" cy="19.95" rx="1.35" ry="1.69" style="fill:white;"/>
    </g>
    <g transform="matrix(1.2,0,0,1.2,-253.872,-8.0821)">
        <path d="M265.2,100.82L257.56,100.82C232.27,101.56 211.17,81.66 210.43,56.37C209.69,31.08 229.59,9.98 254.88,9.24C255.27,9.23 255.66,9.22 256.06,9.22L265.21,9.22C290.5,8.48 311.6,28.38 312.34,53.67C313.08,78.96 293.18,100.06 267.89,100.8C267.5,100.81 267.11,100.82 266.71,100.82C266.21,100.83 265.71,100.83 265.2,100.82ZM257.56,12.2C233.94,12.56 215.09,32 215.45,55.62C215.8,78.73 234.45,97.38 257.56,97.73L265.2,97.73C288.82,97.37 307.67,77.93 307.31,54.31C306.96,31.2 288.31,12.55 265.2,12.2L257.56,12.2Z" style="fill:rgb(24,24,40);fill-rule:nonzero;"/>
    </g>
    <g transform="matrix(1.2,0,0,1.2,-253.872,-8.0821)">
        <ellipse cx="269.47" cy="88.67" rx="3.23" ry="1.21" style="fill:rgb(223,138,58);"/>
    </g>
    <g transform="matrix(1.2,0,0,1.2,-253.872,-8.0821)">
        <circle cx="263.35" cy="88.93" r="1.25" style="fill:rgb(223,138,58);"/>
    </g>
    <g transform="matrix(1.03923,-0.6,0.6,1.03923,-214.836,170.214)">
        <ellipse cx="293.52" cy="13.59" rx="2.27" ry="1.11" style="fill:white;"/>
    </g>
    <g transform="matrix(1.2,0,0,1.2,-253.872,-8.0821)">
        <circle cx="296.13" cy="15.63" r="0.51" style="fill:white;"/>
    </g>
    <g transform="matrix(1.2,0,0,1.2,-253.872,-8.0821)">
        <path d="M260.51,64.1C259.31,64.1 258.33,65.07 258.33,66.28C258.33,66.81 258.52,67.32 258.86,67.71C259.86,68.79 261.27,70.09 262.86,70.09C264.45,70.09 265.86,68.84 266.86,67.71C267.65,66.81 267.56,65.43 266.66,64.64C266.27,64.31 265.79,64.12 265.28,64.1L260.51,64.1Z" style="fill:rgb(24,24,40);fill-rule:nonzero;"/>
    </g>
    <g transform="matrix(1.2,0,0,1.2,-253.872,-16.0821)">
        <circle cx="288.16" cy="100.78" r="11.1" style="fill:rgb(247,189,61);"/>
    </g>
    <g transform="matrix(1.2,0,0,1.2,-253.872,-16.0821)">
        <path d="M299.26,100.78C299.26,106.91 294.29,111.88 288.16,111.88C282.03,111.88 277.06,106.91 277.06,100.78C277.06,94.64 282.06,102.15 288.16,102.15C294.26,102.15 299.26,94.64 299.26,100.78Z" style="fill:white;fill-rule:nonzero;"/>
    </g>
    <g transform="matrix(1.2,0,0,1.2,-253.872,-16.0821)">
        <path d="M288.16,113.46C281.15,113.46 275.46,107.77 275.46,100.76C275.46,93.75 281.15,88.06 288.16,88.06C295.17,88.06 300.86,93.75 300.86,100.76C300.86,107.77 295.17,113.46 288.16,113.46ZM288.16,91.28C282.91,91.28 278.66,95.53 278.66,100.78C278.66,106.03 282.91,110.28 288.16,110.28C293.41,110.28 297.66,106.03 297.66,100.78C297.66,95.53 293.41,91.28 288.16,91.28Z" style="fill:rgb(24,24,40);fill-rule:nonzero;"/>
    </g>
    <g transform="matrix(1.2,0,0,1.2,-253.872,-16.0821)">
        <circle cx="234.99" cy="100.78" r="11.1" style="fill:rgb(247,189,61);"/>
    </g>
    <g transform="matrix(1.2,0,0,1.2,-253.872,-16.0821)">
        <path d="M246.09,100.78C246.09,106.91 241.11,111.88 234.98,111.87C228.85,111.87 223.89,106.9 223.89,100.78C223.89,94.64 228.89,102.15 234.99,102.15C241.09,102.15 246.09,94.64 246.09,100.78Z" style="fill:white;fill-rule:nonzero;"/>
    </g>
    <g transform="matrix(1.2,0,0,1.2,-253.872,-16.0821)">
        <path d="M235,113.46C227.99,113.47 222.29,107.79 222.28,100.78C222.27,93.77 227.95,88.07 234.96,88.06C241.97,88.05 247.67,93.73 247.68,100.74C247.68,107.75 242.01,113.43 235,113.45L235,113.46ZM235,91.28C229.75,91.28 225.5,95.53 225.5,100.78C225.5,106.03 229.75,110.28 235,110.28C240.25,110.28 244.5,106.03 244.5,100.78C244.5,95.54 240.24,91.29 235,91.28Z" style="fill:rgb(24,24,40);fill-rule:nonzero;"/>
    </g>
</svg>
